{"title":"I Think Were Alone Now 2018 Movies 720p HDRip x264 AAC +Sample ☻","magnet":"magnet:?xt=urn:btih:a7c6a903f228dd54c87b6b1c6104d94b4c92f959&dn=I+Think+Were+Alone+Now+2018+Movies+720p+HDRip+x264+AAC+%2BSample+%E2%98%BB&tr=udp%3A%2F%2Ftracker.leechers-paradise.org%3A6969&tr=udp%3A%2F%2Fzer0day.ch%3A1337&tr=udp%3A%2F%2Fopen.demonii.com%3A1337&tr=udp%3A%2F%2Ftracker.coppersurfer.tk%3A6969&tr=udp%3A%2F%2Fexodus.desync.com%3A6969","uploader":"basicssom","categoryP":"video","categoryS":"hd___movies","size":"798997796","seeders":"0","leechers":"29","description":"I Think Were Alone Now 2018 Movies 720p HDRip x264 AAC with Sample &#x263B;rDX&#x263B;\r\n\r\nSCREEN SHOTS &amp; POSTER:\r\n   <a href=\"\nhttp://iphonehosting.eu/2018/9/bucks/index.html\" rel=\"nofollow\" target=\"_NEW\">\nhttp://iphonehosting.eu/2018/9/bucks/index.html</a> <a href=\"\nhttp://iphonehosting.eu/2018/9/bucks/1.html\" rel=\"nofollow\" target=\"_NEW\">\nhttp://iphonehosting.eu/2018/9/bucks/1.html</a> <a href=\"\nhttp://iphonehosting.eu/2018/9/bucks/2.html\" rel=\"nofollow\" target=\"_NEW\">\nhttp://iphonehosting.eu/2018/9/bucks/2.html</a>   <a href=\"\nhttp://iphonehosting.eu/2018/9/bucks/3.html\" rel=\"nofollow\" target=\"_NEW\">\nhttp://iphonehosting.eu/2018/9/bucks/3.html</a>   <a href=\"\nhttp://iphonehosting.eu/2018/9/bucks/4.html\" rel=\"nofollow\" target=\"_NEW\">\nhttp://iphonehosting.eu/2018/9/bucks/4.html</a>   <a href=\"\nhttp://iphonehosting.eu/2018/9/bucks/5.html\" rel=\"nofollow\" target=\"_NEW\">\nhttp://iphonehosting.eu/2018/9/bucks/5.html</a>   <a href=\"\nhttp://iphonehosting.eu/2018/9/bucks/6.html\" rel=\"nofollow\" target=\"_NEW\">\nhttp://iphonehosting.eu/2018/9/bucks/6.html</a>   <a href=\"\nhttp://iphonehosting.eu/2018/9/bucks/7.html\" rel=\"nofollow\" target=\"_NEW\">\nhttp://iphonehosting.eu/2018/9/bucks/7.html</a>   <a href=\"\nhttp://iphonehosting.eu/2018/9/bucks/8.html\" rel=\"nofollow\" target=\"_NEW\">\nhttp://iphonehosting.eu/2018/9/bucks/8.html</a>   <a href=\"\nhttp://iphonehosting.eu/2018/9/bucks/9.html\" rel=\"nofollow\" target=\"_NEW\">\nhttp://iphonehosting.eu/2018/9/bucks/9.html</a>   <a href=\"\nhttp://iphonehosting.eu/2018/9/bucks/10.html\" rel=\"nofollow\" target=\"_NEW\">\nhttp://iphonehosting.eu/2018/9/bucks/10.html</a>\r\n\r\nFile size                                : 755 MiB\r\nDuration                                 : 1 h 39 min\r\nOverall bit rate mode                    : Constant\r\nOverall bit rate                         : 1 063 kb/s\r\nMovie name                               : I Think Were Alone Now 2018 Movies 720p HDRip x264 AAC &#x263B;rDX&#x263B;\r\n\r\nVideo\r\nID                                       : 2\r\nFormat                                   : AVC\r\nFormat/Info                              : Advanced Video Codec\r\nFormat profile                           : Main@L3.1\r\nFormat settings, CABAC                   : Yes\r\nFormat settings, ReFrames                : 2 frames\r\nFormat settings, GOP                     : M=1, N=25\r\nCodec ID                                 : V_MPEG4/ISO/AVC\r\nDuration                                 : 1 h 39 min\r\nBit rate mode                            : Constant\r\nBit rate                                 : 1 000 kb/s\r\nWidth                                    : 1 280 pixels\r\nHeight                                   : 530 pixels\r\nDisplay aspect ratio                     : 2.40:1\r\nFrame rate mode                          : Constant\r\nFrame rate                               : 29.970 (30000/1001) FPS\r\nColor space                              : YUV\r\nChroma subsampling                       : 4:2:0\r\nBit depth                                : 8 bits\r\nScan type                                : Progressive\r\nBits/(Pixel*Frame)                       : 0.049\r\nStream size                              : 694 MiB (92%)\r\nTitle                                    : &#x263B;rDX&#x263B;\r\nDefault                                  : Yes\r\nForced                                   : No\r\n\r\nAudio\r\nID                                       : 1\r\nFormat                                   : MPEG Audio\r\nFormat version                           : Version 1\r\nFormat profile                           : Layer 3\r\nMode                                     : Joint stereo\r\nMode extension                           : MS Stereo\r\nCodec ID                                 : A_MPEG/L3\r\nCodec ID/Hint                            : MP3\r\nDuration                                 : 1 h 39 min\r\nBit rate mode                            : Constant\r\nBit rate                                 : 64.0 kb/s\r\nChannel(s)                               : 2 channels\r\nSampling rate                            : 44.1 kHz\r\nCompression mode                         : Lossy\r\nStream size                              : 45.5 MiB (6%)\r\nTitle                                    : &#x263B;rDX&#x263B;\r\nDefault                                  : Yes\r\nForced                                   : No\r\n <a href=\"\nhttps://www.imdb.com/title/tt6169694/\" rel=\"nofollow\" target=\"_NEW\">\nhttps://www.imdb.com/title/tt6169694/</a>","last_updated":"2018-09-21T12:24:25.987Z","parsed":{"xt":"urn:btih:a7c6a903f228dd54c87b6b1c6104d94b4c92f959","dn":"I Think Were Alone Now 2018 Movies 720p HDRip x264 AAC  Sample ☻","tr":["udp://exodus.desync.com:6969","udp://open.demonii.com:1337","udp://tracker.coppersurfer.tk:6969","udp://tracker.leechers-paradise.org:6969","udp://zer0day.ch:1337"],"infoHash":"a7c6a903f228dd54c87b6b1c6104d94b4c92f959","infoHashBuffer":{"type":"Buffer","data":[167,198,169,3,242,40,221,84,200,123,107,28,97,4,217,75,76,146,249,89]},"name":"I Think Were Alone Now 2018 Movies 720p HDRip x264 AAC  Sample ☻","announce":["udp://exodus.desync.com:6969","udp://open.demonii.com:1337","udp://tracker.coppersurfer.tk:6969","udp://tracker.leechers-paradise.org:6969","udp://zer0day.ch:1337"],"urlList":[]}}